<mxfile host="app.diagrams.net" agent="Mozilla/5.0 (Windows NT 10.0; Win64; x64) AppleWebKit/537.36 (KHTML, like Gecko) Chrome/130.0.0.0 Safari/537.36 CCleaner/130.0.0.0" version="25.0.3">
  <diagram id="Ht1M8jgEwFfnCIfOTk4-" name="Page-1">
    <mxGraphModel dx="1744" dy="1863" grid="1" gridSize="10" guides="1" tooltips="1" connect="1" arrows="1" fold="1" page="1" pageScale="1" pageWidth="1169" pageHeight="827" math="0" shadow="0">
      <root>
        <mxCell id="0" />
        <mxCell id="1" parent="0" />
        <mxCell id="uE1NtOPX23qY_bY5YEE4-47" value="" style="rounded=1;arcSize=10;dashed=1;strokeColor=#F59D56;fillColor=none;gradientColor=none;dashPattern=8 4;strokeWidth=2;" parent="1" vertex="1">
          <mxGeometry x="420" y="30" width="766" height="830" as="geometry" />
        </mxCell>
        <mxCell id="uE1NtOPX23qY_bY5YEE4-3" value="" style="container=1;collapsible=0;expand=0;recursiveResize=0;html=1;whiteSpace=wrap;strokeColor=#A56EFF;fillColor=none;" parent="1" vertex="1">
          <mxGeometry x="740" y="120" width="350" height="140" as="geometry" />
        </mxCell>
        <mxCell id="uE1NtOPX23qY_bY5YEE4-4" value="Microservices - User" style="shape=rect;fillColor=#A56EFF;aspect=fixed;resizable=0;labelPosition=right;verticalLabelPosition=middle;align=left;verticalAlign=middle;strokeColor=none;part=1;spacingLeft=5;fontSize=14;" parent="uE1NtOPX23qY_bY5YEE4-3" vertex="1">
          <mxGeometry width="48" height="48" relative="1" as="geometry" />
        </mxCell>
        <mxCell id="uE1NtOPX23qY_bY5YEE4-5" value="" style="fillColor=#ffffff;shape=mxgraph.ibm_cloud.microservices--1;strokeColor=none;dashed=0;outlineConnect=0;html=1;labelPosition=center;verticalLabelPosition=bottom;verticalAlign=top;part=1;movable=0;resizable=0;rotatable=0;" parent="uE1NtOPX23qY_bY5YEE4-4" vertex="1">
          <mxGeometry width="24" height="24" relative="1" as="geometry">
            <mxPoint x="12" y="12" as="offset" />
          </mxGeometry>
        </mxCell>
        <mxCell id="uE1NtOPX23qY_bY5YEE4-7" value="User-db" style="verticalLabelPosition=bottom;html=1;verticalAlign=top;align=center;strokeColor=none;fillColor=#00BEF2;shape=mxgraph.azure.sql_database;" parent="uE1NtOPX23qY_bY5YEE4-3" vertex="1">
          <mxGeometry x="260" y="61" width="37.5" height="50" as="geometry" />
        </mxCell>
        <mxCell id="uE1NtOPX23qY_bY5YEE4-20" value="User Service" style="rounded=1;whiteSpace=wrap;html=1;fillColor=#f5f5f5;fontColor=#333333;strokeColor=#666666;" parent="uE1NtOPX23qY_bY5YEE4-3" vertex="1">
          <mxGeometry x="30" y="61" width="120" height="50" as="geometry" />
        </mxCell>
        <mxCell id="uE1NtOPX23qY_bY5YEE4-24" style="edgeStyle=orthogonalEdgeStyle;rounded=0;orthogonalLoop=1;jettySize=auto;html=1;entryX=0;entryY=0.5;entryDx=0;entryDy=0;entryPerimeter=0;" parent="uE1NtOPX23qY_bY5YEE4-3" source="uE1NtOPX23qY_bY5YEE4-20" target="uE1NtOPX23qY_bY5YEE4-7" edge="1">
          <mxGeometry relative="1" as="geometry" />
        </mxCell>
        <mxCell id="uE1NtOPX23qY_bY5YEE4-6" value="API gateway" style="sketch=0;points=[[0,0,0],[0.25,0,0],[0.5,0,0],[0.75,0,0],[1,0,0],[0,1,0],[0.25,1,0],[0.5,1,0],[0.75,1,0],[1,1,0],[0,0.25,0],[0,0.5,0],[0,0.75,0],[1,0.25,0],[1,0.5,0],[1,0.75,0]];outlineConnect=0;fontColor=#232F3E;fillColor=#8C4FFF;strokeColor=#ffffff;dashed=0;verticalLabelPosition=bottom;verticalAlign=top;align=center;html=1;fontSize=12;fontStyle=0;aspect=fixed;shape=mxgraph.aws4.resourceIcon;resIcon=mxgraph.aws4.api_gateway;" parent="1" vertex="1">
          <mxGeometry x="556" y="-73" width="58" height="58" as="geometry" />
        </mxCell>
        <mxCell id="uE1NtOPX23qY_bY5YEE4-102" style="edgeStyle=orthogonalEdgeStyle;rounded=0;orthogonalLoop=1;jettySize=auto;html=1;" parent="1" source="uE1NtOPX23qY_bY5YEE4-15" target="uE1NtOPX23qY_bY5YEE4-23" edge="1">
          <mxGeometry relative="1" as="geometry" />
        </mxCell>
        <mxCell id="uE1NtOPX23qY_bY5YEE4-15" value="User" style="html=1;verticalLabelPosition=bottom;align=center;labelBackgroundColor=#ffffff;verticalAlign=top;strokeWidth=2;strokeColor=#0080F0;shadow=0;dashed=0;shape=mxgraph.ios7.icons.user;" parent="1" vertex="1">
          <mxGeometry x="1000" y="-73" width="60" height="62" as="geometry" />
        </mxCell>
        <mxCell id="uE1NtOPX23qY_bY5YEE4-23" value="Load Balancer" style="sketch=0;outlineConnect=0;fontColor=#232F3E;gradientColor=none;strokeColor=#ffffff;fillColor=#232F3E;dashed=0;verticalLabelPosition=middle;verticalAlign=bottom;align=center;html=1;whiteSpace=wrap;fontSize=10;fontStyle=1;spacing=3;shape=mxgraph.aws4.productIcon;prIcon=mxgraph.aws4.application_load_balancer;" parent="1" vertex="1">
          <mxGeometry x="810" y="-84" width="67.2" height="84" as="geometry" />
        </mxCell>
        <mxCell id="uE1NtOPX23qY_bY5YEE4-25" value="" style="container=1;collapsible=0;expand=0;recursiveResize=0;html=1;whiteSpace=wrap;strokeColor=#A56EFF;fillColor=none;" parent="1" vertex="1">
          <mxGeometry x="740" y="290" width="350" height="140" as="geometry" />
        </mxCell>
        <mxCell id="uE1NtOPX23qY_bY5YEE4-26" value="Microservices - Vehicle" style="shape=rect;fillColor=#A56EFF;aspect=fixed;resizable=0;labelPosition=right;verticalLabelPosition=middle;align=left;verticalAlign=middle;strokeColor=none;part=1;spacingLeft=5;fontSize=14;" parent="uE1NtOPX23qY_bY5YEE4-25" vertex="1">
          <mxGeometry width="48" height="48" relative="1" as="geometry" />
        </mxCell>
        <mxCell id="uE1NtOPX23qY_bY5YEE4-27" value="" style="fillColor=#ffffff;shape=mxgraph.ibm_cloud.microservices--1;strokeColor=none;dashed=0;outlineConnect=0;html=1;labelPosition=center;verticalLabelPosition=bottom;verticalAlign=top;part=1;movable=0;resizable=0;rotatable=0;" parent="uE1NtOPX23qY_bY5YEE4-26" vertex="1">
          <mxGeometry width="24" height="24" relative="1" as="geometry">
            <mxPoint x="12" y="12" as="offset" />
          </mxGeometry>
        </mxCell>
        <mxCell id="uE1NtOPX23qY_bY5YEE4-28" value="Vehicle-db" style="verticalLabelPosition=bottom;html=1;verticalAlign=top;align=center;strokeColor=none;fillColor=#00BEF2;shape=mxgraph.azure.sql_database;" parent="uE1NtOPX23qY_bY5YEE4-25" vertex="1">
          <mxGeometry x="260" y="61" width="37.5" height="50" as="geometry" />
        </mxCell>
        <mxCell id="uE1NtOPX23qY_bY5YEE4-29" value="Vehicle Service" style="rounded=1;whiteSpace=wrap;html=1;fillColor=#f5f5f5;fontColor=#333333;strokeColor=#666666;" parent="uE1NtOPX23qY_bY5YEE4-25" vertex="1">
          <mxGeometry x="30" y="61" width="120" height="50" as="geometry" />
        </mxCell>
        <mxCell id="uE1NtOPX23qY_bY5YEE4-30" style="edgeStyle=orthogonalEdgeStyle;rounded=0;orthogonalLoop=1;jettySize=auto;html=1;entryX=0;entryY=0.5;entryDx=0;entryDy=0;entryPerimeter=0;" parent="uE1NtOPX23qY_bY5YEE4-25" source="uE1NtOPX23qY_bY5YEE4-29" target="uE1NtOPX23qY_bY5YEE4-28" edge="1">
          <mxGeometry relative="1" as="geometry" />
        </mxCell>
        <mxCell id="uE1NtOPX23qY_bY5YEE4-31" value="" style="container=1;collapsible=0;expand=0;recursiveResize=0;html=1;whiteSpace=wrap;strokeColor=#A56EFF;fillColor=none;" parent="1" vertex="1">
          <mxGeometry x="740" y="460" width="350" height="140" as="geometry" />
        </mxCell>
        <mxCell id="uE1NtOPX23qY_bY5YEE4-32" value="Microservices- Billing" style="shape=rect;fillColor=#A56EFF;aspect=fixed;resizable=0;labelPosition=right;verticalLabelPosition=middle;align=left;verticalAlign=middle;strokeColor=none;part=1;spacingLeft=5;fontSize=14;" parent="uE1NtOPX23qY_bY5YEE4-31" vertex="1">
          <mxGeometry width="48" height="48" relative="1" as="geometry" />
        </mxCell>
        <mxCell id="uE1NtOPX23qY_bY5YEE4-33" value="" style="fillColor=#ffffff;shape=mxgraph.ibm_cloud.microservices--1;strokeColor=none;dashed=0;outlineConnect=0;html=1;labelPosition=center;verticalLabelPosition=bottom;verticalAlign=top;part=1;movable=0;resizable=0;rotatable=0;" parent="uE1NtOPX23qY_bY5YEE4-32" vertex="1">
          <mxGeometry width="24" height="24" relative="1" as="geometry">
            <mxPoint x="12" y="12" as="offset" />
          </mxGeometry>
        </mxCell>
        <mxCell id="uE1NtOPX23qY_bY5YEE4-34" value="Bill-db" style="verticalLabelPosition=bottom;html=1;verticalAlign=top;align=center;strokeColor=none;fillColor=#00BEF2;shape=mxgraph.azure.sql_database;" parent="uE1NtOPX23qY_bY5YEE4-31" vertex="1">
          <mxGeometry x="260" y="61" width="37.5" height="50" as="geometry" />
        </mxCell>
        <mxCell id="uE1NtOPX23qY_bY5YEE4-35" value="Billing Service" style="rounded=1;whiteSpace=wrap;html=1;fillColor=#f5f5f5;fontColor=#333333;strokeColor=#666666;" parent="uE1NtOPX23qY_bY5YEE4-31" vertex="1">
          <mxGeometry x="30" y="61" width="120" height="50" as="geometry" />
        </mxCell>
        <mxCell id="uE1NtOPX23qY_bY5YEE4-36" style="edgeStyle=orthogonalEdgeStyle;rounded=0;orthogonalLoop=1;jettySize=auto;html=1;entryX=0;entryY=0.5;entryDx=0;entryDy=0;entryPerimeter=0;" parent="uE1NtOPX23qY_bY5YEE4-31" source="uE1NtOPX23qY_bY5YEE4-35" target="uE1NtOPX23qY_bY5YEE4-34" edge="1">
          <mxGeometry relative="1" as="geometry" />
        </mxCell>
        <mxCell id="uE1NtOPX23qY_bY5YEE4-45" value="EC2 instance contents" style="points=[[0,0],[0.25,0],[0.5,0],[0.75,0],[1,0],[1,0.25],[1,0.5],[1,0.75],[1,1],[0.75,1],[0.5,1],[0.25,1],[0,1],[0,0.75],[0,0.5],[0,0.25]];outlineConnect=0;gradientColor=none;html=1;whiteSpace=wrap;fontSize=12;fontStyle=0;container=1;pointerEvents=0;collapsible=0;recursiveResize=0;shape=mxgraph.aws4.group;grIcon=mxgraph.aws4.group_ec2_instance_contents;strokeColor=#D86613;fillColor=none;verticalAlign=top;align=left;spacingLeft=30;fontColor=#D86613;dashed=0;" parent="1" vertex="1">
          <mxGeometry x="540" y="80" width="600" height="730" as="geometry" />
        </mxCell>
        <mxCell id="uE1NtOPX23qY_bY5YEE4-51" value="/api/v1/Billing" style="aspect=fixed;sketch=0;html=1;dashed=0;whitespace=wrap;verticalLabelPosition=bottom;verticalAlign=top;fillColor=#2875E2;strokeColor=#ffffff;points=[[0.005,0.63,0],[0.1,0.2,0],[0.9,0.2,0],[0.5,0,0],[0.995,0.63,0],[0.72,0.99,0],[0.5,1,0],[0.28,0.99,0]];shape=mxgraph.kubernetes.icon2;prIcon=api" parent="uE1NtOPX23qY_bY5YEE4-45" vertex="1">
          <mxGeometry x="120" y="420" width="50" height="48" as="geometry" />
        </mxCell>
        <mxCell id="uE1NtOPX23qY_bY5YEE4-50" value="/api/v1/vehicle" style="aspect=fixed;sketch=0;html=1;dashed=0;whitespace=wrap;verticalLabelPosition=bottom;verticalAlign=top;fillColor=#2875E2;strokeColor=#ffffff;points=[[0.005,0.63,0],[0.1,0.2,0],[0.9,0.2,0],[0.5,0,0],[0.995,0.63,0],[0.72,0.99,0],[0.5,1,0],[0.28,0.99,0]];shape=mxgraph.kubernetes.icon2;prIcon=api" parent="uE1NtOPX23qY_bY5YEE4-45" vertex="1">
          <mxGeometry x="120" y="250" width="50" height="48" as="geometry" />
        </mxCell>
        <mxCell id="uE1NtOPX23qY_bY5YEE4-39" value="" style="container=1;collapsible=0;expand=0;recursiveResize=0;html=1;whiteSpace=wrap;strokeColor=#A56EFF;fillColor=none;" parent="1" vertex="1">
          <mxGeometry x="740" y="640" width="350" height="140" as="geometry" />
        </mxCell>
        <mxCell id="uE1NtOPX23qY_bY5YEE4-40" value="Microservices- Reservation" style="shape=rect;fillColor=#A56EFF;aspect=fixed;resizable=0;labelPosition=right;verticalLabelPosition=middle;align=left;verticalAlign=middle;strokeColor=none;part=1;spacingLeft=5;fontSize=14;" parent="uE1NtOPX23qY_bY5YEE4-39" vertex="1">
          <mxGeometry width="48" height="48" relative="1" as="geometry" />
        </mxCell>
        <mxCell id="uE1NtOPX23qY_bY5YEE4-41" value="" style="fillColor=#ffffff;shape=mxgraph.ibm_cloud.microservices--1;strokeColor=none;dashed=0;outlineConnect=0;html=1;labelPosition=center;verticalLabelPosition=bottom;verticalAlign=top;part=1;movable=0;resizable=0;rotatable=0;" parent="uE1NtOPX23qY_bY5YEE4-40" vertex="1">
          <mxGeometry width="24" height="24" relative="1" as="geometry">
            <mxPoint x="12" y="12" as="offset" />
          </mxGeometry>
        </mxCell>
        <mxCell id="uE1NtOPX23qY_bY5YEE4-42" value="Reservation-db" style="verticalLabelPosition=bottom;html=1;verticalAlign=top;align=center;strokeColor=none;fillColor=#00BEF2;shape=mxgraph.azure.sql_database;" parent="uE1NtOPX23qY_bY5YEE4-39" vertex="1">
          <mxGeometry x="260" y="61" width="37.5" height="50" as="geometry" />
        </mxCell>
        <mxCell id="uE1NtOPX23qY_bY5YEE4-43" value="Reservation Service" style="rounded=1;whiteSpace=wrap;html=1;fillColor=#f5f5f5;fontColor=#333333;strokeColor=#666666;" parent="uE1NtOPX23qY_bY5YEE4-39" vertex="1">
          <mxGeometry x="30" y="61" width="120" height="50" as="geometry" />
        </mxCell>
        <mxCell id="uE1NtOPX23qY_bY5YEE4-44" style="edgeStyle=orthogonalEdgeStyle;rounded=0;orthogonalLoop=1;jettySize=auto;html=1;entryX=0;entryY=0.5;entryDx=0;entryDy=0;entryPerimeter=0;" parent="uE1NtOPX23qY_bY5YEE4-39" source="uE1NtOPX23qY_bY5YEE4-43" target="uE1NtOPX23qY_bY5YEE4-42" edge="1">
          <mxGeometry relative="1" as="geometry" />
        </mxCell>
        <mxCell id="uE1NtOPX23qY_bY5YEE4-48" value="" style="sketch=0;outlineConnect=0;fontColor=#232F3E;gradientColor=none;fillColor=#ED7100;strokeColor=none;dashed=0;verticalLabelPosition=bottom;verticalAlign=top;align=center;html=1;fontSize=12;fontStyle=0;aspect=fixed;pointerEvents=1;shape=mxgraph.aws4.auto_scaling2;" parent="1" vertex="1">
          <mxGeometry x="440" y="400" width="68" height="68" as="geometry" />
        </mxCell>
        <mxCell id="uE1NtOPX23qY_bY5YEE4-53" style="edgeStyle=orthogonalEdgeStyle;rounded=0;orthogonalLoop=1;jettySize=auto;html=1;entryX=0;entryY=0.5;entryDx=0;entryDy=0;endArrow=none;endFill=0;" parent="1" source="uE1NtOPX23qY_bY5YEE4-49" target="uE1NtOPX23qY_bY5YEE4-3" edge="1">
          <mxGeometry relative="1" as="geometry" />
        </mxCell>
        <mxCell id="uE1NtOPX23qY_bY5YEE4-49" value="/api/v1/user" style="aspect=fixed;sketch=0;html=1;dashed=0;whitespace=wrap;verticalLabelPosition=bottom;verticalAlign=top;fillColor=#2875E2;strokeColor=#ffffff;points=[[0.005,0.63,0],[0.1,0.2,0],[0.9,0.2,0],[0.5,0,0],[0.995,0.63,0],[0.72,0.99,0],[0.5,1,0],[0.28,0.99,0]];shape=mxgraph.kubernetes.icon2;prIcon=api" parent="1" vertex="1">
          <mxGeometry x="670" y="166" width="50" height="48" as="geometry" />
        </mxCell>
        <mxCell id="uE1NtOPX23qY_bY5YEE4-52" value="/api/v1/Reservation" style="aspect=fixed;sketch=0;html=1;dashed=0;whitespace=wrap;verticalLabelPosition=bottom;verticalAlign=top;fillColor=#2875E2;strokeColor=#ffffff;points=[[0.005,0.63,0],[0.1,0.2,0],[0.9,0.2,0],[0.5,0,0],[0.995,0.63,0],[0.72,0.99,0],[0.5,1,0],[0.28,0.99,0]];shape=mxgraph.kubernetes.icon2;prIcon=api" parent="1" vertex="1">
          <mxGeometry x="670" y="670" width="50" height="48" as="geometry" />
        </mxCell>
        <mxCell id="uE1NtOPX23qY_bY5YEE4-60" style="edgeStyle=orthogonalEdgeStyle;rounded=0;orthogonalLoop=1;jettySize=auto;html=1;exitX=0.995;exitY=0.63;exitDx=0;exitDy=0;exitPerimeter=0;endArrow=none;endFill=0;" parent="1" source="uE1NtOPX23qY_bY5YEE4-52" edge="1">
          <mxGeometry relative="1" as="geometry">
            <mxPoint x="740" y="700" as="targetPoint" />
          </mxGeometry>
        </mxCell>
        <mxCell id="uE1NtOPX23qY_bY5YEE4-130" style="edgeStyle=orthogonalEdgeStyle;rounded=0;orthogonalLoop=1;jettySize=auto;html=1;entryX=0.5;entryY=0;entryDx=0;entryDy=0;entryPerimeter=0;" parent="1" source="uE1NtOPX23qY_bY5YEE4-23" target="uE1NtOPX23qY_bY5YEE4-6" edge="1">
          <mxGeometry relative="1" as="geometry" />
        </mxCell>
        <mxCell id="7qhU-3rSzs8mmTFuY98g-3" style="edgeStyle=orthogonalEdgeStyle;rounded=0;orthogonalLoop=1;jettySize=auto;html=1;exitX=0.995;exitY=0.63;exitDx=0;exitDy=0;exitPerimeter=0;entryX=0;entryY=0.5;entryDx=0;entryDy=0;endArrow=none;endFill=0;" edge="1" parent="1" source="uE1NtOPX23qY_bY5YEE4-51" target="uE1NtOPX23qY_bY5YEE4-31">
          <mxGeometry relative="1" as="geometry" />
        </mxCell>
        <mxCell id="7qhU-3rSzs8mmTFuY98g-4" style="edgeStyle=orthogonalEdgeStyle;rounded=0;orthogonalLoop=1;jettySize=auto;html=1;exitX=0.995;exitY=0.63;exitDx=0;exitDy=0;exitPerimeter=0;entryX=0;entryY=0.5;entryDx=0;entryDy=0;endArrow=none;endFill=0;" edge="1" parent="1" source="uE1NtOPX23qY_bY5YEE4-50" target="uE1NtOPX23qY_bY5YEE4-25">
          <mxGeometry relative="1" as="geometry" />
        </mxCell>
        <mxCell id="7qhU-3rSzs8mmTFuY98g-5" style="edgeStyle=orthogonalEdgeStyle;rounded=0;orthogonalLoop=1;jettySize=auto;html=1;entryX=0.005;entryY=0.63;entryDx=0;entryDy=0;entryPerimeter=0;" edge="1" parent="1" source="uE1NtOPX23qY_bY5YEE4-6" target="uE1NtOPX23qY_bY5YEE4-49">
          <mxGeometry relative="1" as="geometry" />
        </mxCell>
        <mxCell id="7qhU-3rSzs8mmTFuY98g-6" style="edgeStyle=orthogonalEdgeStyle;rounded=0;orthogonalLoop=1;jettySize=auto;html=1;exitX=1;exitY=0.75;exitDx=0;exitDy=0;exitPerimeter=0;entryX=0.005;entryY=0.63;entryDx=0;entryDy=0;entryPerimeter=0;" edge="1" parent="1" source="uE1NtOPX23qY_bY5YEE4-6" target="uE1NtOPX23qY_bY5YEE4-50">
          <mxGeometry relative="1" as="geometry" />
        </mxCell>
        <mxCell id="7qhU-3rSzs8mmTFuY98g-7" style="edgeStyle=orthogonalEdgeStyle;rounded=0;orthogonalLoop=1;jettySize=auto;html=1;exitX=0.5;exitY=1;exitDx=0;exitDy=0;exitPerimeter=0;entryX=0.005;entryY=0.63;entryDx=0;entryDy=0;entryPerimeter=0;" edge="1" parent="1" source="uE1NtOPX23qY_bY5YEE4-6" target="uE1NtOPX23qY_bY5YEE4-51">
          <mxGeometry relative="1" as="geometry" />
        </mxCell>
        <mxCell id="7qhU-3rSzs8mmTFuY98g-8" style="edgeStyle=orthogonalEdgeStyle;rounded=0;orthogonalLoop=1;jettySize=auto;html=1;exitX=0;exitY=0.5;exitDx=0;exitDy=0;exitPerimeter=0;entryX=0.005;entryY=0.63;entryDx=0;entryDy=0;entryPerimeter=0;" edge="1" parent="1" source="uE1NtOPX23qY_bY5YEE4-6" target="uE1NtOPX23qY_bY5YEE4-52">
          <mxGeometry relative="1" as="geometry">
            <Array as="points">
              <mxPoint x="560" y="-44" />
              <mxPoint x="560" y="700" />
            </Array>
          </mxGeometry>
        </mxCell>
      </root>
    </mxGraphModel>
  </diagram>
</mxfile>
